PathFileType	4	(X/Y/Z)	/Users/itak/Documents/Research/Walk-IL/dataset/trc/00037_00004.trc
DataRate	CameraRate	NumFrames	NumMarkers	Units	OrigDataRate	OrigDataStartFrame	OrigNumFrames
100.000000	100.000000	4	53	mm	100.000000	194	778
Frame#	Time	RPSI			LPSI			L3			STRN			T10			C7			CLAV			RBAK			LBAK			LSHO			LUPA			LAEL			LAOL			LWTS			LWPS			LFRA			LIFD			LHPS			LHTS			RSHO			RUPA			RAEL			RAOL			RWTS			RWPS			RFRA			RIFD			RHTS			RHPS			RBHD			LFHD			RFHD			LBHD			RHIP			RASI			LASI			LKNE			LTHI			LANK			LTIP			LTOE			LMT1			LMT5			LHEE			RKNE			RTHI			RANK			RTIP			RTOE			RMT1			RMT5			RHEE			LHIP			
		X1	Y1	Z1	X2	Y2	Z2	X3	Y3	Z3	X4	Y4	Z4	X5	Y5	Z5	X6	Y6	Z6	X7	Y7	Z7	X8	Y8	Z8	X9	Y9	Z9	X10	Y10	Z10	X11	Y11	Z11	X12	Y12	Z12	X13	Y13	Z13	X14	Y14	Z14	X15	Y15	Z15	X16	Y16	Z16	X17	Y17	Z17	X18	Y18	Z18	X19	Y19	Z19	X20	Y20	Z20	X21	Y21	Z21	X22	Y22	Z22	X23	Y23	Z23	X24	Y24	Z24	X25	Y25	Z25	X26	Y26	Z26	X27	Y27	Z27	X28	Y28	Z28	X29	Y29	Z29	X30	Y30	Z30	X31	Y31	Z31	X32	Y32	Z32	X33	Y33	Z33	X34	Y34	Z34	X35	Y35	Z35	X36	Y36	Z36	X37	Y37	Z37	X38	Y38	Z38	X39	Y39	Z39	X40	Y40	Z40	X41	Y41	Z41	X42	Y42	Z42	X43	Y43	Z43	X44	Y44	Z44	X45	Y45	Z45	X46	Y46	Z46	X47	Y47	Z47	X48	Y48	Z48	X49	Y49	Z49	X50	Y50	Z50	X51	Y51	Z51	X52	Y52	Z52	X53	Y53	Z53	

195	1.94	2.869594097137451	1058.123046875	852.9338989257812	-16.35523986816406	1063.127075195312	1015.090454101562	-2.802672863006592	1129.28173828125	939.9639282226562	-236.3215789794922	1294.291259765625	862.9238891601562	10.58863544464111	1274.118530273438	937.7050170898438	-65.97838592529297	1532.712158203125	900.0400390625	-204.6023864746094	1422.881713867188	859.12451171875	22.21291923522949	1394.468872070312	860.3349609375	-75.08287811279297	1509.667846679688	1002.666564941406	-195.6275482177734	1511.227905273438	1038.425170898438	-178.3449096679688	1405.404418945312	1143.153442382812	-160.5779418945312	1196.952514648438	1206.702758789062	-76.95330810546875	1184.952392578125	1144.092529296875	-200.530029296875	930.51513671875	1154.266479492188	-147.0120239257812	929.5921020507812	1224.251586914062	-165.4860229492188	1080.648803710938	1223.875610351562	-201.3054504394531	742.240234375	1147.296264648438	-169.5308380126953	836.690673828125	1220.437622070312	-217.2299194335938	835.6525268554688	1167.91796875	-77.00856018066406	1488.56298828125	716.4711303710938	-32.56499099731445	1415.3056640625	665.4987182617188	40.48878860473633	1155.008911132812	689.9737548828125	4.228827476501465	1134.899169921875	781.9599609375	-98.6923828125	897.9244995117188	691.196044921875	-14.32468032836914	875.925048828125	658.7808227539062	36.36853790283203	1075.292602539062	678.5269775390625	-116.0322570800781	720.9893798828125	731.7770385742188	-130.2128448486328	789.3690185546875	676.4548950195312	-59.64399719238281	776.663818359375	653.1414794921875	-218.8979187011719	1703.679931640625	893.7755126953125	-203.1662750244141	1664.880249023438	678.455322265625	-288.1247863769531	1670.666259765625	727.9850463867188	-98.29148864746094	1691.881469726562	815.35888671875	-100.7834777832031	935.8704223632812	746.564208984375	-207.9245910644531	973.0284423828125	804.010009765625	-230.7912750244141	1002.010559082031	1036.591064453125	-218.9497375488281	508.4684143066406	1119.818603515625	-181.4048767089844	656.1499633789062	1137.785278320312	202.56201171875	228.19677734375	1229.056030273438	-2.117891311645508	375.8999938964844	1193.698852539062	68.04647827148438	62.29586791992188	1163.489135742188	104.3706283569336	107.4476318359375	1145.832641601562	124.7144470214844	132.23779296875	1247.228393554688	245.1014404296875	280.9140014648438	1178.462890625	-218.2542266845703	521.5118408203125	810.0863037109375	-150.4686431884766	776.7830810546875	749.1660766601562	-187.6015472412109	42.60924911499023	932.7642211914062	-216.0123596191406	392.9903869628906	830.972900390625	-405.1741027832031	46.68925857543945	845.0465698242188	-368.61181640625	50.94458389282227	903.402587890625	-301.0874328613281	45.75030899047852	835.49951171875	-166.1542816162109	44.59621810913086	1000.634216308594	-123.1865386962891	961.0241088867188	1118.082397460938	
196	1.95	-3.341869831085205	1058.634887695312	849.8800659179688	-24.61852645874023	1063.848876953125	1011.778930664062	-9.97068977355957	1130.11376953125	936.6810302734375	-242.3806610107422	1295.7841796875	857.7750244140625	3.783966302871704	1274.916381835938	934.694580078125	-71.89271545410156	1533.749877929688	896.7463989257812	-210.3897705078125	1424.297241210938	854.540771484375	16.37504386901855	1395.426635742188	857.6057739257812	-81.77246856689453	1510.579711914062	999.2413940429688	-202.5943603515625	1512.421630859375	1034.111328125	-186.2579803466797	1406.373046875	1138.763793945312	-169.3417510986328	1197.792724609375	1202.044799804688	-85.57120513916016	1185.5380859375	1139.716552734375	-210.2066040039062	931.580810546875	1149.385620117188	-156.8255157470703	930.392333984375	1219.459106445312	-174.7052917480469	1081.533813476562	1219.134887695312	-212.0234375	743.3502807617188	1142.4306640625	-179.7167205810547	837.6602783203125	1215.635986328125	-227.4350433349609	836.8099975585938	1163.029663085938	-81.4251708984375	1489.923583984375	713.0911865234375	-36.74946594238281	1416.680419921875	662.3203735351562	35.2313346862793	1155.986450195312	686.5033569335938	-1.504052639007568	1135.848999023438	778.2713623046875	-107.3374862670898	900.7289428710938	686.1307373046875	-23.14361953735352	877.654052734375	653.9303588867188	30.37134742736816	1076.190063476562	674.7290649414062	-128.7822723388672	724.38330078125	724.7933959960938	-140.4135589599609	792.8341064453125	670.6246337890625	-69.93274688720703	779.1325073242188	647.563232421875	-225.2412872314453	1704.957641601562	889.1245727539062	-207.4317321777344	1665.919189453125	673.9788208007812	-292.9023132324219	1671.535278320312	722.7136840820312	-103.9588928222656	1693.38427734375	811.8394165039062	-105.4698181152344	936.0706176757812	742.4042358398438	-213.4890289306641	974.0287475585938	797.91796875	-239.6531524658203	1003.6484375	1030.075439453125	-237.052001953125	510.7075805664062	1111.116088867188	-197.2747192382812	657.7444458007812	1130.878173828125	179.1002655029297	227.7926177978516	1230.181396484375	-23.30221557617188	376.7864074707031	1189.837524414062	43.25303268432617	62.59298706054688	1164.846069335938	80.60144805908203	107.0337219238281	1147.163696289062	98.96080017089844	133.5363006591797	1248.377197265625	223.4443206787109	278.8892517089844	1179.54248046875	-220.8816375732422	520.8399047851562	808.0392456054688	-154.7312316894531	776.3941040039062	745.621337890625	-187.7371673583984	42.73377227783203	932.7557373046875	-217.8970184326172	392.5491638183594	829.573974609375	-405.4186401367188	46.25305557250977	845.10791015625	-368.7646179199219	50.654296875	903.412109375	-301.20849609375	45.63097763061523	835.47412109375	-166.2469635009766	44.7080192565918	1000.651916503906	-133.8411407470703	962.2901000976562	1113.326416015625	
197	1.96	-9.519250869750977	1059.089477539062	846.86181640625	-32.90085983276367	1064.49072265625	1008.469848632812	-17.11407279968262	1130.84375	933.4240112304688	-248.3535308837891	1297.26416015625	852.556884765625	-2.959211826324463	1275.614624023438	931.7137451171875	-77.66773986816406	1534.71484375	893.5238037109375	-216.0381774902344	1425.676025390625	849.9718627929688	10.63919353485107	1396.290283203125	854.9374389648438	-88.36500549316406	1511.396728515625	995.8626098632812	-209.4591979980469	1513.543090820312	1029.808959960938	-194.0768127441406	1407.265747070312	1134.375244140625	-177.9940643310547	1198.57421875	1197.389404296875	-94.10650634765625	1186.058471679688	1135.334716796875	-219.8348083496094	932.6116943359375	1144.4619140625	-166.5726165771484	931.1336059570312	1214.611083984375	-183.8345642089844	1082.357299804688	1214.380493164062	-222.7682037353516	744.4330444335938	1137.467529296875	-189.8648223876953	838.572509765625	1210.742553710938	-237.6138153076172	837.931884765625	1158.080810546875	-85.64684295654297	1491.284790039062	709.787353515625	-40.73084259033203	1418.06396484375	659.2151489257812	30.11600685119629	1156.9599609375	683.1522827148438	-7.192746639251709	1136.789184570312	774.654541015625	-115.7607803344727	903.5614624023438	681.049560546875	-31.76881980895996	879.4249877929688	649.1113891601562	24.51139068603516	1077.093872070312	671.029296875	-141.7878723144531	727.946533203125	717.4874267578125	-150.3934020996094	796.3511352539062	664.7186889648438	-79.98652648925781	781.66064453125	641.9700317382812	-231.3523864746094	1706.199096679688	884.5530395507812	-211.4897003173828	1666.985717773438	669.6021118164062	-297.4519653320312	1672.441162109375	717.5464477539062	-109.4148635864258	1694.840942382812	808.4100341796875	-109.9962615966797	936.2100219726562	738.2683715820312	-218.9515228271484	974.9622802734375	791.7535400390625	-248.4756011962891	1005.267761230469	1023.436828613281	-254.7576904296875	513.0145263671875	1101.91064453125	-212.9767150878906	659.3502197265625	1123.640869140625	154.7435760498047	226.0988006591797	1231.050537109375	-44.74072265625	377.1620788574219	1185.58544921875	17.09526824951172	62.35880279541016	1164.954223632812	55.65271377563477	105.9651641845703	1147.596923828125	72.00342559814453	133.8597412109375	1248.675170898438	201.1395416259766	275.5682983398438	1180.71533203125	-223.3907318115234	520.1285400390625	805.9730224609375	-158.8770904541016	775.973876953125	742.10595703125	-187.8591766357422	42.85291290283203	932.7557983398438	-219.6830444335938	392.0891418457031	828.1731567382812	-405.6584777832031	45.88141632080078	845.1663818359375	-368.8990173339844	50.40629959106445	903.419921875	-301.312744140625	45.51517868041992	835.4453735351562	-166.3132019042969	44.84074783325195	1000.656188964844	-144.5776214599609	963.5094604492188	1108.491088867188	
198	1.97	-15.67457675933838	1059.488525390625	843.8670654296875	-41.20605850219727	1065.042602539062	1005.150146484375	-24.24164009094238	1131.461669921875	930.1867065429688	-254.2387390136719	1298.70947265625	847.2755126953125	-9.641500473022461	1276.215942382812	928.7560424804688	-83.32732391357422	1535.59765625	890.36767578125	-221.5479736328125	1427.003784179688	845.4177856445312	4.993094444274902	1397.05419921875	852.3219604492188	-94.89395141601562	1512.1103515625	992.5244140625	-216.2501525878906	1514.570434570312	1025.50244140625	-201.8338775634766	1408.061645507812	1129.9794921875	-186.5734710693359	1199.278076171875	1192.742431640625	-102.5845413208008	1186.503173828125	1130.979248046875	-229.3989410400391	933.588623046875	1139.47998046875	-176.2598266601562	931.7986450195312	1209.714599609375	-192.9035949707031	1083.097045898438	1209.6142578125	-233.4799194335938	745.4630126953125	1132.3828125	-199.9866180419922	839.3995361328125	1205.746704101562	-247.7415008544922	838.9917602539062	1153.04541015625	-89.69749450683594	1492.629516601562	706.5499877929688	-44.52666091918945	1419.43798828125	656.17578125	25.14450073242188	1157.915161132812	679.9157104492188	-12.83296394348145	1137.70751953125	771.1076049804688	-123.9568481445312	906.4016723632812	675.954833984375	-40.19401550292969	881.2173461914062	644.3287353515625	18.79306602478027	1077.9873046875	667.4266967773438	-154.8236694335938	731.6148071289062	709.9991455078125	-160.1361236572266	799.893798828125	658.7575073242188	-89.79582977294922	784.2260131835938	636.3781127929688	-237.2537841796875	1707.38671875	880.0471801757812	-215.3327331542969	1668.075927734375	665.3155517578125	-301.7699890136719	1673.385498046875	712.4581909179688	-114.6595687866211	1696.228149414062	805.0745849609375	-114.4132766723633	936.2940673828125	734.1491088867188	-224.3265991210938	975.8209838867188	785.544921875	-257.2515258789062	1006.849731445312	1016.705017089844	-272.0460510253906	515.362060546875	1092.212890625	-228.5111236572266	660.9473266601562	1116.074096679688	129.4819793701172	223.1500854492188	1231.572021484375	-66.40021514892578	377.0245056152344	1180.926147460938	-10.38915061950684	61.71395874023438	1163.73779296875	29.54887390136719	104.2996063232422	1147.021728515625	43.91229248046875	133.2681274414062	1248.045288085938	178.194091796875	270.9848022460938	1181.897216796875	-225.7766418457031	519.3798828125	803.8850708007812	-162.9154052734375	775.5260620117188	738.6156616210938	-187.9620208740234	42.96442413330078	932.7662353515625	-221.3636779785156	391.6104125976562	826.7706909179688	-405.89306640625	45.56610870361328	845.2211303710938	-369.0166931152344	50.2006950378418	903.4212036132812	-301.4023742675781	45.40190505981445	835.4139404296875	-166.3514099121094	44.99591827392578	1000.643981933594	-155.3772277832031	964.6653442382812	1103.5703125	
